<svg width="0" height="0" style="position:absolute"><symbol viewBox="0 0 512 512" id="3eb832b6cf3cb537631b34e2279673b8" xmlns="http://www.w3.org/2000/svg"><path d="M6.979 271.181c30.288 25.979 64.616 55.426 131.017 55.426 66.403-.001 100.733-29.447 131.022-55.426 28.644-24.568 53.382-45.787 104.98-45.787 51.599 0 76.337 21.219 104.98 45.787 8.385 7.191 21.011 6.225 28.202-2.159 7.191-8.385 6.225-21.011-2.16-28.202-30.289-25.979-64.619-55.426-131.022-55.426S273.265 214.84 242.976 240.82c-28.644 24.568-53.382 45.787-104.98 45.787-51.597 0-76.332-21.218-104.974-45.787-8.384-7.191-21.01-6.226-28.202 2.159-7.192 8.384-6.225 21.011 2.159 28.202z"/><path d="M6.979 161.787c30.287 25.98 64.615 55.426 131.017 55.426 66.403 0 100.733-29.446 131.022-55.426C297.662 137.219 322.399 116 373.998 116c51.597 0 76.335 21.218 104.98 45.787 8.385 7.193 21.01 6.224 28.201-2.161 7.192-8.384 6.223-21.012-2.161-28.202C474.729 105.444 440.399 76 373.998 76c-66.403 0-100.733 29.446-131.022 55.426-28.644 24.568-53.382 45.787-104.98 45.787-51.596 0-76.332-21.218-104.974-45.787-8.384-7.192-21.011-6.226-28.202 2.159-7.192 8.384-6.225 21.011 2.159 28.202zM505.02 350.213c-30.289-25.979-64.619-55.426-131.022-55.426s-100.733 29.446-131.022 55.426C214.332 374.781 189.594 396 137.996 396c-51.594 0-76.331-21.218-104.973-45.785l-.002-.002c-8.384-7.189-21.009-6.223-28.201 2.16-7.191 8.384-6.224 21.011 2.16 28.202C37.268 406.555 71.597 436 137.996 436c66.403 0 100.733-29.446 131.022-55.426 28.644-24.568 53.382-45.787 104.98-45.787 51.599 0 76.337 21.219 104.98 45.787 8.385 7.191 21.011 6.225 28.202-2.159 7.191-8.385 6.225-21.011-2.16-28.202z"/></symbol><symbol viewBox="0 0 492 492" id="4a945dd616d79ceadcb144e5cd488c5e" xmlns="http://www.w3.org/2000/svg"><path d="M300.188 246L484.14 62.04c5.06-5.064 7.852-11.82 7.86-19.024 0-7.208-2.792-13.972-7.86-19.028L468.02 7.872C462.952 2.796 456.196.016 448.984.016c-7.2 0-13.956 2.78-19.024 7.856L246.008 191.82 62.048 7.872C56.988 2.796 50.228.016 43.02.016c-7.2 0-13.96 2.78-19.02 7.856L7.872 23.988c-10.496 10.496-10.496 27.568 0 38.052L191.828 246 7.872 429.952C2.808 435.024.02 441.78.02 448.984c0 7.204 2.788 13.96 7.852 19.028l16.124 16.116c5.06 5.072 11.824 7.856 19.02 7.856 7.208 0 13.968-2.784 19.028-7.856l183.96-183.952 183.952 183.952c5.068 5.072 11.824 7.856 19.024 7.856h.008c7.204 0 13.96-2.784 19.028-7.856l16.12-16.116c5.06-5.064 7.852-11.824 7.852-19.028 0-7.204-2.792-13.96-7.852-19.028L300.188 246z"/></symbol><symbol viewBox="0 0 512 512" id="523b12d1ad7097e01ebd1061205fd67d" xmlns="http://www.w3.org/2000/svg"><path d="M256 512C114.836 512 0 397.164 0 256S114.836 0 256 0s256 114.836 256 256-114.836 256-256 256zm0-480C132.48 32 32 132.48 32 256s100.48 224 224 224 224-100.48 224-224S379.52 32 256 32zm0 0"/><path d="M232 341.332c-4.098 0-8.191-1.555-11.309-4.691l-69.332-69.332c-6.25-6.254-6.25-16.387 0-22.637s16.383-6.25 22.637 0l58.024 58.027 127.363-127.36c6.25-6.25 16.383-6.25 22.633 0s6.25 16.384 0 22.634L243.348 336.64A16.03 16.03 0 01232 341.332zm0 0"/></symbol><symbol viewBox="0 0 512 512" id="799bd441d97106427a6b6c1c7fd01d41" xmlns="http://www.w3.org/2000/svg"><linearGradient id="da" gradientUnits="userSpaceOnUse" x1="256" y1="514" x2="256" y2="2" gradientTransform="matrix(1 0 0 -1 0 514)"><stop offset="0" stop-color="#12b796"/><stop offset="1" stop-color="#13a1fe"/></linearGradient><path d="M437.02 330.98c-27.883-27.882-61.071-48.523-97.281-61.018C378.521 243.251 404 198.548 404 148 404 66.393 337.607 0 256 0S108 66.393 108 148c0 50.548 25.479 95.251 64.262 121.962-36.21 12.495-69.398 33.136-97.281 61.018C26.629 379.333 0 443.62 0 512h40c0-119.103 96.897-216 216-216s216 96.897 216 216h40c0-68.38-26.629-132.667-74.98-181.02zM148 148c0-59.552 48.449-108 108-108s108 48.448 108 108-48.449 108-108 108-108-48.448-108-108z" fill="url(#da)"/></symbol><symbol viewBox="0 0 451.846 451.847" id="a0e061b54507c1ea6361ee20ac930f2c" xmlns="http://www.w3.org/2000/svg"><path d="M345.441 248.292L151.154 442.573c-12.359 12.365-32.397 12.365-44.75 0-12.354-12.354-12.354-32.391 0-44.744L278.318 225.92 106.409 54.017c-12.354-12.359-12.354-32.394 0-44.748 12.354-12.359 32.391-12.359 44.75 0l194.287 194.284c6.177 6.18 9.262 14.271 9.262 22.366 0 8.099-3.091 16.196-9.267 22.373z"/></symbol></svg>